<svg width="316" height="316" viewBox="0 0 316 316" fill="none" xmlns="http://www.w3.org/2000/svg">
<rect x="119" y="44" width="78" height="219" fill="white"/>
<rect x="82" y="77" width="152" height="186" rx="68" fill="white"/>
<path fill-rule="evenodd" clip-rule="evenodd" d="M58.2623 186.114C54.8372 194.342 52.9237 203.12 52.6138 212.026C53.0864 217.519 54.9598 222.799 58.0549 227.362C63.8789 234.105 70.8827 239.73 78.7233 243.962L129.362 277.675C135.593 282.634 142.6 286.531 150.1 289.209C154.969 290.368 160.043 290.368 164.912 289.209C172.462 286.564 179.525 282.694 185.818 277.754L237 244.021C244.92 239.777 252.004 234.129 257.905 227.352C261.022 222.765 262.894 217.446 263.336 211.918C263 202.938 261.036 194.095 257.54 185.818L212.776 44.9412C211.777 40.3787 209.971 36.0313 207.444 32.1037C205.603 29.8669 203.225 28.1341 200.531 27.0674C196.031 25.8473 191.35 25.4394 186.706 25.8627H128.424C123.779 25.4404 119.096 25.8586 114.599 27.097C111.899 28.1615 109.519 29.9027 107.687 32.153C105.17 36.0809 103.381 40.4293 102.404 44.9905L58.2623 186.124V186.114ZM189.007 55.7642C191.089 59.0743 192.564 62.7294 193.362 66.5575L231.796 192.8C217.36 185.312 201.865 180.074 185.847 177.266L160.873 92.7362C160.72 92.2369 160.449 91.7817 160.083 91.4087C159.718 91.0357 159.268 90.7557 158.772 90.5923C158.276 90.4288 157.748 90.3867 157.232 90.4693C156.716 90.552 156.228 90.757 155.808 91.0673C155.244 91.4799 154.831 92.0662 154.632 92.7362L129.945 177.237C113.851 180.038 98.2844 185.297 83.7891 192.829L122.381 66.5872C123.171 62.7519 124.65 59.0917 126.745 55.7839C128.274 53.908 130.251 52.4476 132.493 51.5377C136.27 50.5166 140.2 50.1822 144.096 50.5502H171.677C175.576 50.1818 179.509 50.5163 183.29 51.5377C185.538 52.4503 187.519 53.918 189.047 55.8037L189.007 55.7642ZM159.254 207.968C171.138 208.656 182.924 205.456 192.829 198.853C193.955 202.397 194.354 206.133 194.003 209.835C193.652 213.537 192.557 217.131 190.785 220.4C187.141 226.593 181.854 231.655 175.508 235.025C168.852 239.252 163.125 242.925 163.125 252.672C163.117 255.798 163.823 258.885 165.189 261.697C160.7 259.833 156.865 256.681 154.167 252.639C151.469 248.596 150.03 243.845 150.031 238.985V238.383C150.031 231.638 150.031 223.333 140.531 223.333C139.207 223.332 137.895 223.591 136.67 224.093C134.204 225.114 132.244 227.071 131.219 229.535C130.71 230.758 130.445 232.07 130.439 233.396C123.927 226.285 120.43 216.925 120.682 207.286C120.636 203.115 121.219 198.96 122.41 194.962C126.36 202.438 141.37 207.997 159.254 207.997V207.968Z" fill="#FF5D01"/>
</svg>
