<svg width="22" height="26" viewBox="0 0 22 26" fill="none" xmlns="http://www.w3.org/2000/svg">
<path d="M10.135 1H14.1V19.169C12.4075 19.5164 10.6847 19.6956 8.95697 19.704C4.11497 19.699 1.59497 17.536 1.59497 13.382C1.59497 9.382 4.26797 6.782 8.41097 6.782C8.99202 6.77067 9.57194 6.83795 10.135 6.982V1V1ZM10.135 10.142C9.70392 9.99981 9.25177 9.93217 8.79797 9.942C6.79797 9.942 5.63497 11.165 5.63497 13.308C5.63497 15.395 6.74197 16.547 8.77297 16.547C9.2288 16.5469 9.68401 16.5135 10.135 16.447V10.147V10.142Z" fill="#44B78B"/>
<path d="M20.4001 7.05902V16.159C20.4001 19.292 20.1651 20.798 19.4771 22.097C18.7749 23.4178 17.6268 24.4466 16.2371 25L12.5591 23.267C13.8953 22.8095 15.0144 21.8728 15.7001 20.638C16.2661 19.517 16.4451 18.218 16.4451 14.801V7.05902H20.4001ZM16.4411 1.02002H20.4051V5.04802H16.4411V1.02002Z" fill="#44B78B"/>
</svg>
