<svg width="186" height="217" viewBox="0 0 186 217" fill="none" xmlns="http://www.w3.org/2000/svg">
<g clip-path="url(#clip0_1012_44)">
<path d="M67.1812 61.8625L67.7791 75.6146L58.2124 93.5521L43.2645 122.85L40.2749 147.365L51.0374 182.044L75.552 195.796H112.623L147.302 169.487L162.848 128.231L126.973 84.5833L116.808 60.0687L67.1812 61.8625Z" fill="#ECEFF1"/>
<path d="M152.086 95.9438C142.519 82.1917 134.746 73.8208 130.561 56.4813C126.375 39.1417 131.756 43.925 128.169 28.9771C126.375 21.2042 123.386 15.8229 120.396 11.6375C116.809 7.45209 112.623 5.06042 110.231 4.4625C104.85 1.47292 92.294 -3.31042 76.7482 5.06042C60.6044 13.4312 62.3981 31.3688 65.3877 67.8417C65.3877 70.2333 64.7898 73.2229 63.594 75.6146C61.2023 80.9958 57.0169 85.7792 53.4294 89.9646C49.244 95.9438 45.0586 101.923 42.069 108.5C34.894 122.252 28.3169 139.592 30.1106 146.169C33.1002 145.571 70.769 202.971 70.769 204.167C73.1607 203.569 83.3252 203.569 92.294 203.569C104.85 202.971 112.025 202.373 122.19 204.765C122.19 202.971 121.592 201.177 121.592 199.383C121.592 195.796 122.19 192.806 122.788 188.621C123.386 185.631 123.984 182.642 124.581 179.054C118.602 184.435 107.84 190.415 97.6752 192.208C88.7065 194.002 73.7586 191.013 66.5836 182.044C67.1815 182.044 68.3773 182.044 68.9752 181.446C70.769 180.848 72.5627 180.25 73.1606 179.054C74.9544 176.065 73.7586 173.075 72.5627 171.281C71.3669 169.488 62.3981 162.91 58.2127 159.323C54.0273 155.735 51.6357 153.942 49.244 151.55L44.4606 146.767C43.2648 145.571 42.6669 144.375 42.069 143.777C40.8731 140.788 40.2752 137.2 40.8731 132.417C41.4711 125.84 43.8627 120.458 46.8523 114.479C48.0482 112.088 51.0377 107.304 51.0377 107.304C51.0377 107.304 40.8732 132.417 46.2544 140.19C46.2544 140.19 46.8523 132.417 49.244 124.644C51.0377 119.263 54.0273 111.49 57.6148 107.304C61.2023 103.119 70.1711 87.5729 70.769 78.0063C70.769 73.8208 71.3669 69.6354 71.3669 66.6458C68.9752 64.2542 110.829 58.275 113.221 64.8521C113.819 67.2438 122.19 88.7688 126.973 100.129C129.365 105.51 132.354 110.294 134.148 116.273C135.942 122.85 137.138 131.819 137.138 140.788C137.138 142.581 137.138 145.571 136.54 148.56C137.736 148.56 161.054 123.448 133.55 102.521C133.55 102.521 150.292 110.294 150.89 125.84C151.488 138.396 146.106 148.56 144.911 150.354C145.509 150.354 157.467 155.735 158.065 155.735C160.456 155.735 165.24 153.942 165.24 153.942C165.838 152.148 167.631 147.365 167.631 145.571C171.817 131.819 161.652 109.696 152.086 95.9438V95.9438Z" fill="#263238"/>
<path d="M76.1499 56.4812C80.4427 56.4812 83.9228 51.1273 83.9228 44.5229C83.9228 37.9185 80.4427 32.5646 76.1499 32.5646C71.857 32.5646 68.377 37.9185 68.377 44.5229C68.377 51.1273 71.857 56.4812 76.1499 56.4812Z" fill="#ECEFF1"/>
<path d="M103.056 57.6771C108.67 57.6771 113.221 51.5201 113.221 43.925C113.221 36.3299 108.67 30.1729 103.056 30.1729C97.4424 30.1729 92.8916 36.3299 92.8916 43.925C92.8916 51.5201 97.4424 57.6771 103.056 57.6771Z" fill="#ECEFF1"/>
<path d="M80.4963 45.34C79.9994 41.4087 77.7375 38.4567 75.4442 38.7465C73.1509 39.0364 71.6946 42.4584 72.1915 46.3898C72.6885 50.3211 74.9504 53.2731 77.2437 52.9833C79.537 52.6934 80.9932 49.2714 80.4963 45.34Z" fill="#212121"/>
<path d="M102.459 54.0895C105.761 54.0895 108.438 50.6095 108.438 46.3166C108.438 42.0238 105.761 38.5437 102.459 38.5437C99.1565 38.5437 96.4795 42.0238 96.4795 46.3166C96.4795 50.6095 99.1565 54.0895 102.459 54.0895Z" fill="#212121"/>
<path d="M181.981 177.858C179.59 176.662 175.404 174.869 171.817 169.487C170.023 166.498 170.621 158.127 167.631 154.54C165.837 152.148 163.446 153.344 162.848 153.344C157.467 154.54 144.91 162.91 136.54 153.344C135.344 152.148 133.55 150.354 130.56 150.354C127.571 150.354 126.375 151.55 125.179 153.942C123.983 156.333 123.983 158.127 123.983 164.106C123.983 168.89 123.983 174.271 123.385 178.456C122.19 188.621 120.396 194.6 120.396 200.579C120.396 207.156 122.19 211.342 124.581 213.135C126.375 214.929 129.365 216.125 135.942 216.125C142.519 216.125 146.704 213.733 150.89 209.548C153.879 206.558 156.271 205.362 164.642 199.383C171.219 195.198 181.383 189.817 183.177 188.023C184.373 186.827 186.167 186.229 186.167 182.642C186.167 179.652 183.775 178.456 181.981 177.858V177.858ZM61.8 179.652C55.8208 170.085 55.2229 168.292 51.0375 162.312C47.45 156.333 39.6771 144.973 34.8937 144.973C31.3062 144.973 29.5125 146.767 27.1208 149.158C24.7291 151.55 22.3375 156.931 18.1521 159.921C14.5646 162.91 4.39998 162.312 2.00832 165.9C-0.383349 169.487 4.39999 174.869 4.39999 183.837C4.39999 187.425 1.4104 189.817 0.812485 192.208C0.214568 195.198 -0.383348 196.992 0.812485 199.383C3.20415 202.971 6.19373 204.167 26.5229 208.352C37.2854 210.744 47.45 216.723 54.0271 217.321C60.6041 217.919 71.9646 217.321 71.9646 201.177C72.5625 191.61 67.1812 189.219 61.8 179.652V179.652ZM73.1604 71.4291C69.5729 69.0375 66.5833 66.6458 66.5833 63.0583C66.5833 59.4708 68.975 58.275 72.5625 55.2854C73.1604 54.6875 79.7375 48.7083 86.3146 48.7083C92.8916 48.7083 100.665 52.8937 103.654 54.0896C109.035 55.2854 114.417 56.4812 113.819 60.6666C113.221 66.6458 112.623 67.8417 106.644 70.8312C102.458 72.0271 94.6854 78.6041 89.3041 78.6041C86.9125 78.6041 83.325 78.6041 80.9333 78.0062C79.1396 77.4083 76.15 74.4187 73.1604 71.4291Z" fill="#FFC107"/>
<path d="M71.9644 66.6458C73.1602 67.8417 74.954 69.0375 76.7477 69.6354C77.9436 70.2333 79.7373 70.8312 79.7373 70.8312H85.1186C88.1081 70.8312 92.2936 69.6354 96.479 67.2437C100.664 65.45 101.262 64.2542 104.252 63.0583C107.241 61.2646 110.231 59.4708 109.035 58.8729C107.839 58.275 106.644 58.8729 102.458 61.2646C98.8706 63.6562 95.8811 64.8521 92.2936 66.6458C90.4998 67.2437 88.1081 68.4396 86.3144 68.4396H80.9331C79.1394 68.4396 77.9436 67.8417 76.1498 67.2437C74.954 66.6458 74.3561 66.0479 73.7581 66.0479C72.5623 65.45 70.1706 63.0583 68.9748 62.4604C68.9748 62.4604 67.779 62.4604 68.3769 63.0583L71.9644 66.6458ZM89.9019 53.4917C90.4998 54.6875 91.6956 54.6875 92.2936 55.2854C92.8915 55.8833 93.4894 55.8833 93.4894 55.8833C94.0873 55.2854 93.4894 54.0896 92.8915 54.0896C92.8915 52.8937 89.9019 52.8937 89.9019 53.4917V53.4917ZM80.3352 54.6875C80.3352 55.2854 81.5311 55.8833 81.5311 55.2854C82.129 54.6875 82.7269 54.0896 83.3248 54.0896C84.5206 53.4917 83.9227 52.8937 82.129 52.8937C80.9331 53.4917 80.9331 54.0896 80.3352 54.6875V54.6875Z" fill="#634703"/>
<path d="M138.334 160.519V162.313C139.529 164.704 142.519 165.302 144.911 165.302C148.498 165.302 152.086 162.91 153.879 160.519C153.879 159.921 154.477 159.323 155.075 158.725C156.271 156.931 156.869 155.735 157.467 155.138C157.467 155.138 156.869 154.54 156.869 153.942C156.271 152.746 154.477 151.55 152.086 150.952C150.292 150.354 147.302 149.756 146.106 149.756C140.725 149.158 137.736 150.952 135.942 152.746C135.942 152.746 136.54 152.746 136.54 153.344C137.736 154.54 138.334 155.735 138.334 157.529C138.931 158.725 138.334 159.323 138.334 160.519V160.519Z" fill="#455A64"/>
</g>
<defs>
<clipPath id="clip0_1012_44">
<rect width="186" height="217" fill="white"/>
</clipPath>
</defs>
</svg>
