<svg width="226" height="156" viewBox="0 0 226 156" fill="none" xmlns="http://www.w3.org/2000/svg">
<g clip-path="url(#clip0_1010_7)">
<path d="M96.3253 132.605L85.1655 9.75H207.834L196.659 132.585L146.425 146.25L96.3253 132.605Z" fill="#1572B6"/>
<path d="M146.5 135.808L187.095 124.766L196.645 19.7974H146.5V135.808Z" fill="#33A9DC"/>
<path d="M146.5 64.3061H166.822L168.223 48.8767H146.5V33.8081H185.008L184.64 37.8495L180.869 79.3747H146.5V64.3061V64.3061Z" fill="white"/>
<path d="M146.594 103.438L146.525 103.457L129.422 98.9235L128.329 86.9066H112.911L115.063 110.565L146.52 119.135L146.594 119.116V103.438V103.438Z" fill="#EBEBEB"/>
<path d="M165.515 78.7361L163.667 98.9137L146.54 103.447V119.125L178.022 110.565L178.255 108.02L180.923 78.7361H165.515V78.7361Z" fill="white"/>
<path d="M146.555 33.8081V48.8767H109.458L109.15 45.4886L108.449 37.8495L108.082 33.8081H146.555V33.8081ZM146.5 64.3061V79.3747H129.611L129.303 75.9866L128.607 68.3475L128.24 64.3061H146.5V64.3061Z" fill="#EBEBEB"/>
<path d="M29.3254 132.605L18.1606 9.75H140.839L129.659 132.585L79.4253 146.25L29.3254 132.605Z" fill="#E44F26"/>
<path d="M79.5 135.808L120.095 124.766L129.645 19.7974H79.5V135.808Z" fill="#F1662A"/>
<path d="M79.5 65.3591H59.1778L57.7766 49.9297H79.5V34.8611H40.9922L41.3599 38.9073L45.1312 80.4277H79.5V65.3591V65.3591ZM79.5 104.491L79.4304 104.51L62.328 99.9813L61.2349 87.9645H45.8168L47.9683 111.618L79.4304 120.188L79.5 120.169V104.491Z" fill="#EBEBEB"/>
<path d="M79.4453 65.3591V80.4277H98.3564L96.5776 99.9716L79.4453 104.505V120.183L110.932 111.618L111.161 109.073L114.768 69.4053L115.146 65.3591H79.4453V65.3591ZM79.4453 34.8611V49.9297H116.542L116.85 46.5465L117.551 38.9073L117.918 34.8611H79.4453V34.8611Z" fill="white"/>
</g>
<defs>
<clipPath id="clip0_1010_7">
<rect width="226" height="156" fill="white"/>
</clipPath>
</defs>
</svg>
